<svg width="54" height="54" viewBox="0 0 54 54" fill="none" xmlns="http://www.w3.org/2000/svg">
<rect opacity="0.9" x="1" y="1" width="52" height="52" rx="8" stroke="#598CFF"/>
<path d="M19 34H35V29H37V35C37 35.2652 36.8946 35.5196 36.7071 35.7071C36.5196 35.8946 36.2652 36 36 36H18C17.7348 36 17.4804 35.8946 17.2929 35.7071C17.1054 35.5196 17 35.2652 17 35V29H19V34ZM27 25H24C23.0531 24.9993 22.1195 25.2231 21.2757 25.653C20.432 26.0828 19.7021 26.7066 19.146 27.473C19.501 25.6505 20.4786 24.0081 21.9115 22.8272C23.3443 21.6463 25.1432 21.0003 27 21V17L35 23L27 29V25Z" fill="#598CFF"/>
</svg>
