<svg width="18" height="19" viewBox="0 0 18 19" fill="none" xmlns="http://www.w3.org/2000/svg">
<path d="M15 16.6915H16V4.2074L14.172 2.33253H13V6.4351H4V2.33253H2V16.6915H3V9.51202H15V16.6915ZM1 0.28125H15L17.707 3.05766C17.8946 3.24996 17.9999 3.51079 18 3.78279V17.7171C18 17.9892 17.8946 18.25 17.7071 18.4424C17.5196 18.6347 17.2652 18.7428 17 18.7428H1C0.734784 18.7428 0.48043 18.6347 0.292893 18.4424C0.105357 18.25 0 17.9892 0 17.7171V1.30689C0 1.03487 0.105357 0.773998 0.292893 0.581653C0.48043 0.389308 0.734784 0.28125 1 0.28125ZM5 11.5633V16.6915H13V11.5633H5Z" fill="white"/>
</svg>
