<svg width="20" height="20" viewBox="0 0 20 20" fill="none" xmlns="http://www.w3.org/2000/svg">
<path d="M10.2201 19.1C15.3035 19.1 19.4265 15.0269 19.4265 10C19.4265 4.9731 15.3035 0.9 10.2201 0.9C5.13663 0.9 1.01368 4.9731 1.01368 10C1.01368 15.0269 5.13663 19.1 10.2201 19.1Z" stroke="#5C5C5C" stroke-width="0.2"/>
<path d="M10.22 10.7929L7.9248 8.14645C7.75545 7.95118 7.48089 7.95118 7.31155 8.14645C7.1422 8.34171 7.1422 8.65829 7.31155 8.85355L9.91334 11.8536C10.0827 12.0488 10.3572 12.0488 10.5266 11.8536L13.1284 8.85355C13.2977 8.65829 13.2977 8.34171 13.1284 8.14645C12.959 7.95118 12.6845 7.95118 12.5151 8.14645L10.22 10.7929Z" fill="#565656"/>
<mask id="mask0" mask-type="alpha" maskUnits="userSpaceOnUse" x="7" y="8" width="7" height="4">
<path d="M10.22 10.7929L7.9248 8.14645C7.75545 7.95118 7.48089 7.95118 7.31155 8.14645C7.1422 8.34171 7.1422 8.65829 7.31155 8.85355L9.91334 11.8536C10.0827 12.0488 10.3572 12.0488 10.5266 11.8536L13.1284 8.85355C13.2977 8.65829 13.2977 8.34171 13.1284 8.14645C12.959 7.95118 12.6845 7.95118 12.5151 8.14645L10.22 10.7929Z" fill="white"/>
</mask>
<g mask="url(#mask0)">
</g>
</svg>
